<svg xmlns="http://www.w3.org/2000/svg" viewBox="0 0 160 90"><defs><linearGradient id="g" x1="0" y1="0" x2="1" y2="1"><stop stop-color="#16a36f"/><stop offset="1" stop-color="#7bd64b"/></linearGradient></defs><circle cx="43" cy="43" r="31" fill="#fff" stroke="#bfead9" stroke-width="2"/><path d="M43 66C39 58 22 53 22 39c0-8 6-14 14-14 4 0 7 2 7 6 0-4 3-6 7-6 8 0 14 6 14 14 0 14-17 19-21 27z" fill="url(#g)"/><circle cx="34" cy="31" r="4" fill="#ffd95b"/><path d="M31 19v-5M20 23l-4-3M48 19l3-5" stroke="#f3bd3e" stroke-width="2" stroke-linecap="round"/><text x="82" y="39" font-family="Arial,sans-serif" font-size="11" font-weight="800" fill="#16785b">GERAKAN MASYARAKAT</text><text x="82" y="58" font-family="Arial,sans-serif" font-size="20" font-weight="900" fill="#0b8b62">GERMAS</text></svg>